<mxfile host="app.diagrams.net" modified="2021-06-18T06:40:30.478Z" agent="5.0 (Macintosh; Intel Mac OS X 10_15_7) AppleWebKit/537.36 (KHTML, like Gecko) Chrome/91.0.4472.101 Safari/537.36" etag="3wxNkoN733qcahfuVgoI" version="14.8.0" type="github">
  <diagram id="YpsX1BEtZajijJ9lMrWi" name="第 1 页">
    <mxGraphModel dx="1426" dy="769" grid="1" gridSize="10" guides="1" tooltips="1" connect="1" arrows="1" fold="1" page="1" pageScale="1" pageWidth="827" pageHeight="1169" math="0" shadow="0">
      <root>
        <mxCell id="0" />
        <mxCell id="1" parent="0" />
        <mxCell id="Bt4u-U3A_f5Hr7sxnq9l-1" value="" style="ellipse;whiteSpace=wrap;html=1;fillColor=#21C0A5;strokeColor=#006658;fontColor=#5C5C5C;" parent="1" vertex="1">
          <mxGeometry x="330" y="210" width="120" height="80" as="geometry" />
        </mxCell>
        <mxCell id="BRlVRcCZI4xf96Y-Ab4p-1" value="" style="ellipse;whiteSpace=wrap;html=1;fillColor=#21C0A5;strokeColor=#006658;fontColor=#5C5C5C;" vertex="1" parent="1">
          <mxGeometry x="220" y="350" width="120" height="80" as="geometry" />
        </mxCell>
        <mxCell id="BRlVRcCZI4xf96Y-Ab4p-2" value="" style="shape=tape;whiteSpace=wrap;html=1;fillColor=#21C0A5;strokeColor=#006658;fontColor=#5C5C5C;" vertex="1" parent="1">
          <mxGeometry x="520" y="200" width="120" height="100" as="geometry" />
        </mxCell>
        <mxCell id="BRlVRcCZI4xf96Y-Ab4p-3" value="" style="shape=document;whiteSpace=wrap;html=1;boundedLbl=1;fillColor=#21C0A5;strokeColor=#006658;fontColor=#5C5C5C;" vertex="1" parent="1">
          <mxGeometry x="220" y="200" width="120" height="80" as="geometry" />
        </mxCell>
        <mxCell id="BRlVRcCZI4xf96Y-Ab4p-4" value="" style="shape=card;whiteSpace=wrap;html=1;fillColor=#21C0A5;strokeColor=#006658;fontColor=#5C5C5C;" vertex="1" parent="1">
          <mxGeometry x="220" y="510" width="80" height="100" as="geometry" />
        </mxCell>
        <mxCell id="BRlVRcCZI4xf96Y-Ab4p-5" value="" style="ellipse;whiteSpace=wrap;html=1;aspect=fixed;fillColor=#21C0A5;strokeColor=#006658;fontColor=#5C5C5C;" vertex="1" parent="1">
          <mxGeometry x="300" y="90" width="80" height="80" as="geometry" />
        </mxCell>
        <mxCell id="BRlVRcCZI4xf96Y-Ab4p-6" value="" style="shape=process;whiteSpace=wrap;html=1;backgroundOutline=1;fillColor=#21C0A5;strokeColor=#006658;fontColor=#5C5C5C;" vertex="1" parent="1">
          <mxGeometry x="320" y="360" width="120" height="60" as="geometry" />
        </mxCell>
        <mxCell id="BRlVRcCZI4xf96Y-Ab4p-7" value="" style="rounded=0;whiteSpace=wrap;html=1;fillColor=#21C0A5;strokeColor=#006658;fontColor=#5C5C5C;" vertex="1" parent="1">
          <mxGeometry x="420" y="90" width="120" height="60" as="geometry" />
        </mxCell>
        <mxCell id="BRlVRcCZI4xf96Y-Ab4p-8" value="" style="shape=xor;whiteSpace=wrap;html=1;rounded=0;sketch=0;fontColor=#5C5C5C;strokeColor=#006658;fillColor=#21C0A5;" vertex="1" parent="1">
          <mxGeometry x="50" y="290" width="60" height="80" as="geometry" />
        </mxCell>
      </root>
    </mxGraphModel>
  </diagram>
</mxfile>
